HIERARCHY
ROOT pelvis
{
  OFFSET 0 100 0
  CHANNELS 6 Xposition Yposition Zposition Zrotation Xrotation Yrotation
  JOINT pelvis_right_femur
  {
    OFFSET -10.78128 -3.44521 -0.5502486
    CHANNELS 3 Zrotation Xrotation Yrotation
    JOINT right_femur_tibia
    {
      OFFSET -0.8047443 -44.0398 -0.1307829
      CHANNELS 3 Zrotation Xrotation Yrotation
      JOINT right_tibia_foot
      {
        OFFSET 3.006224 -47.83518 -5
        CHANNELS 3 Zrotation Xrotation Yrotation
        End Site
        {
          OFFSET 0 -5 15
        }
      }
    }
  }
  JOINT pelvis_left_femur
  {
    OFFSET 10.78128 -3.44521 -0.5502486
    CHANNELS 3 Zrotation Xrotation Yrotation
    JOINT left_femur_tibia
    {
      OFFSET 0.8047443 -44.0398 -0.1307829
      CHANNELS 3 Zrotation Xrotation Yrotation
      JOINT left_tibia_foot
      {
        OFFSET -4.370144 -48.10324 -4.275266
        CHANNELS 3 Zrotation Xrotation Yrotation
        End Site
        {
          OFFSET 0 -5 15
        }
      }
    }
  }
  JOINT pelvis_spine1
  {
    OFFSET 0 6.468898 -3.129235
    CHANNELS 3 Zrotation Xrotation Yrotation
    JOINT spine1
    {
      OFFSET 0 23.15396 4.99043
      CHANNELS 3 Zrotation Xrotation Yrotation
      JOINT spine2
      {
        OFFSET 0 20.79997 -5.064912
        CHANNELS 3 Zrotation Xrotation Yrotation
        JOINT neck
        {
          OFFSET 0 14.38658 9.616178
          CHANNELS 3 Zrotation Xrotation Yrotation
          End Site
          {
            OFFSET 0 20 0
          }
        }
      }
      JOINT right_manubrium
      {
        OFFSET -5.722621 16.35077 3.967754
        CHANNELS 3 Zrotation Xrotation Yrotation
        JOINT right_clavicle
        {
          OFFSET -13.16364 1.694482 -4.693211
          CHANNELS 3 Zrotation Xrotation Yrotation
          JOINT right_humerus
          {
            OFFSET -28.5034 -0.3100689 -2.792744
            CHANNELS 3 Zrotation Xrotation Yrotation
            JOINT right_radius
            {
              OFFSET -25.15693 0.02248979 -1.271978
              CHANNELS 3 Zrotation Xrotation Yrotation
              End Site
              {
                OFFSET -15 0 0
              }
            }
          }
        }
      }
      JOINT left_manubrium
      {
        OFFSET 5.722621 16.35077 3.967754
        CHANNELS 3 Zrotation Xrotation Yrotation
        JOINT left_clavicle
        {
          OFFSET 13.16364 1.694482 -4.693211
          CHANNELS 3 Zrotation Xrotation Yrotation
          JOINT left_humerus
          {
            OFFSET 29.39168 -1.063119 -2.237045
            CHANNELS 3 Zrotation Xrotation Yrotation
            JOINT left_radius
            {
              OFFSET 24.59957 -0.9528479 0.9047498
              CHANNELS 3 Zrotation Xrotation Yrotation
              End Site
              {
                OFFSET 15 -0 -0
              }
            }
          }
        }
      }
    }
  }
}
MOTION
Frames: 11
Frame Time: 0.0416666666667
0 103.5113 0 -0.05440854 -3.162427 0.1011451 3.857942 -17.4136 3.09057 -1.108217e-10 24.53083 3.361139e-11 -5.205006 -5.067206 -4.03162 -4.481066 7.869649 -12.41194 -5.090469e-11 21.77647 2.457944e-10 -0.8377014 -15.76555 16.74346 -1.796858 -1.421414 3.536307 1.593976 9.57795 -7.305984 1.453801 21.7076 6.560179 2.80902 -20.38389 7.993455 3.140769 -16.77621 11.10711 86.77178 28.43041 -18.78898 -1.255366e-11 -1.087775e-11 12.1332 -16.58719 11.58294 8.219356 6.386292 -21.36461 -2.777628 -86.85954 22.45847 14.21642 1.470983e-11 -3.08359e-12 -18.66802 5.289199 13.52735 6.415126
0.05705479 103.4983 4.71109 -0.06782492 -3.028867 0.2310268 3.920619 -18.97541 3.086539 -1.297265e-10 24.5561 3.702868e-11 -5.296297 -4.830195 -4.169126 -4.622051 9.265136 -12.69854 -5.846571e-11 21.72784 2.938764e-10 -0.7457629 -16.27151 16.70612 -1.835372 -1.454968 3.37297 1.699613 9.582223 -7.512584 1.444764 21.81952 6.647256 2.853464 -20.58535 8.098009 3.231651 -16.61984 11.13776 87.59516 28.61187 -19.59033 -1.476052e-11 -1.330705e-11 11.71431 -16.36875 11.58369 8.026825 6.50666 -21.66444 -2.810378 -87.02609 22.61734 13.78357 1.710043e-11 -3.415984e-12 -19.31935 5.472409 13.68916 6.277168
0.08371668 103.4854 9.394788 -0.08276965 -2.871196 0.3901182 3.979625 -20.67761 3.074131 -1.505377e-10 24.51981 4.067356e-11 -5.38358 -4.551943 -4.311314 -4.76372 10.80523 -12.98584 -6.654098e-11 21.6161 3.469172e-10 -0.6474757 -16.79637 16.62008 -1.873968 -1.48851 3.180914 1.81187 9.56173 -7.723915 1.434013 21.88746 6.727155 2.891727 -20.75769 8.191607 3.320247 -16.40164 11.14019 88.26174 28.78485 -20.38319 -1.72232e-11 -1.597414e-11 11.21361 -16.0779 11.55636 7.785152 6.625025 -21.94344 -2.842114 -86.96495 22.77592 13.21923 1.973307e-11 -3.803082e-12 -19.99906 5.665769 13.8334 6.106663
0.07799066 103.4722 14.04106 -0.09939389 -2.693098 0.5811636 4.037913 -22.52023 3.056651 -1.731775e-10 24.44096 4.453638e-11 -5.470115 -4.238315 -4.460262 -4.906537 12.48437 -13.28103 -7.506003e-11 21.45873 4.04676e-10 -0.5429419 -17.34826 16.4992 -1.913715 -1.522878 2.964308 1.931471 9.523792 -7.944019 1.42186 21.9275 6.804329 2.926864 -20.91497 8.280322 3.409737 -16.13589 11.12344 88.84212 28.95584 -21.19226 -1.993969e-11 -1.88602e-11 10.64425 -15.73059 11.50837 7.504067 6.745223 -22.21588 -2.873861 -86.74799 22.9364 12.54957 2.259648e-11 -4.253097e-12 -20.71616 5.871396 13.96932 5.909429
0.04068169 103.4585 18.63659 -0.1164483 -2.502114 0.8048105 4.085733 -24.36543 3.030038 -1.960283e-10 24.29485 4.824159e-11 -5.543797 -3.903357 -4.601368 -5.037456 14.18581 -13.55104 -8.322161e-11 21.23935 4.631026e-10 -0.4414742 -17.87325 16.33008 -1.949975 -1.554096 2.732641 2.047942 9.459387 -8.149697 1.40899 21.91074 6.865719 2.950955 -21.02286 8.347482 3.488732 -15.81963 11.07406 89.17879 29.10977 -21.91616 -2.2731e-11 -2.176077e-11 10.02766 -15.32782 11.42944 7.189727 6.852073 -22.4384 -2.901818 -86.27464 23.07509 11.77803 2.549144e-11 -4.731999e-12 -21.40253 6.070535 14.07146 5.691009
-0.02445602 103.4436 23.17516 -0.1326666 -2.312978 1.059686 4.123433 -26.11044 2.998642 -2.177386e-10 24.11074 5.158676e-11 -5.604413 -3.572304 -4.729253 -5.152007 15.80847 -13.78911 -9.055591e-11 20.98962 5.187047e-10 -0.3484265 -18.35103 16.13725 -1.981871 -1.581405 2.503462 2.155687 9.380364 -8.33403 1.396414 21.85602 6.912871 2.966062 -21.09097 8.396105 3.55646 -15.48632 11.00505 89.33033 29.246 -22.5418 -2.542965e-11 -2.450136e-11 9.412784 -14.90974 11.33267 6.870458 6.94387 -22.61445 -2.925684 -85.65167 23.18622 10.97763 2.824636e-11 -5.211128e-12 -22.02993 6.254223 14.1446 5.4702
-0.1094805 103.4262 27.66271 -0.1458707 -2.147713 1.341687 4.154471 -27.62051 2.970922 -2.36523e-10 23.94142 5.439378e-11 -5.654474 -3.282658 -4.838512 -5.245854 17.21569 -13.99151 -9.664756e-11 20.76431 5.668266e-10 -0.2694492 -18.76068 15.96351 -2.009017 -1.604484 2.302935 2.248223 9.307862 -8.491211 1.385482 21.80019 6.95128 2.977486 -21.14253 8.434952 3.613819 -15.19048 10.94034 89.42722 29.3616 -23.07135 -2.779609e-11 -2.685558e-11 8.873788 -14.54033 11.24271 6.589932 7.021309 -22.75933 -2.94564 -85.07428 23.27283 10.2678 3.063013e-11 -5.648684e-12 -22.56813 6.412352 14.20242 5.275885
-0.2017763 103.4048 32.11826 -0.153173 -2.030461 1.64369 4.182975 -28.74578 2.95633 -2.504238e-10 23.84417 5.651475e-11 -5.696661 -3.075659 -4.92298 -5.314561 18.25598 -14.15325 -1.011706e-10 20.62303 6.023595e-10 -0.2101446 -19.07814 15.85554 -2.030888 -1.622933 2.15984 2.318419 9.264855 -8.614575 1.377623 21.78307 6.986752 2.99097 -21.20228 8.473359 3.661181 -14.99165 10.90585 89.60908 29.45011 -23.50524 -2.955523e-11 -2.858168e-11 8.492137 -14.28907 11.18747 6.395406 7.084883 -22.88899 -2.961733 -84.75403 23.34432 9.780904 3.238776e-11 -5.993052e-12 -22.98284 6.533599 14.25955 5.139639
-0.2847612 103.3783 36.56408 -0.1514541 -1.977614 1.95562 4.203297 -29.31542 2.955114 -2.573723e-10 23.82647 5.765735e-11 -5.723611 -2.980543 -4.969189 -5.350027 18.77346 -14.24693 -1.03559e-10 20.58052 6.200382e-10 -0.1790029 -19.25196 15.82416 -2.043708 -1.63368 2.094314 2.355433 9.255211 -8.683906 1.373922 21.80108 7.012197 3.003221 -21.25578 8.503121 3.690005 -14.91455 10.90343 89.81949 29.49725 -23.76714 -3.042913e-11 -2.943576e-11 8.320742 -14.18773 11.17329 6.312384 7.123458 -22.97829 -2.971281 -84.71192 23.39172 9.581509 3.325963e-11 -6.176466e-12 -23.20768 6.598595 14.30405 5.080066
-0.3359833 103.3445 41.03162 -0.1359969 -2.015424 2.263377 4.212319 -29.10553 2.972299 -2.545713e-10 23.92342 5.746136e-11 -5.73006 -3.04339 -4.962241 -5.341899 18.5565 -14.24597 -1.030637e-10 20.6794 6.126797e-10 -0.1866972 -19.22538 15.90216 -2.043944 -1.633819 2.138288 2.346149 9.293701 -8.678167 1.376059 21.87098 7.024307 3.014222 -21.30279 8.521726 3.693232 -15.01047 10.94761 90.07947 29.48794 -23.79098 -3.004633e-11 -2.907687e-11 8.44643 -14.29901 11.21889 6.387047 7.127559 -23.01322 -2.971945 -85.0718 23.40823 9.791041 3.289061e-11 -6.120606e-12 -23.16757 6.584805 14.33261 5.129144
-0.3281604 103.3014 45.55999 -0.1023379 -2.166076 2.549521 4.207088 -27.92589 3.012466 -2.396156e-10 24.16484 5.555552e-11 -5.711186 -3.303315 -4.889351 -5.278988 17.42535 -14.12804 -9.885542e-11 20.95584 5.741069e-10 -0.2432744 -18.95045 16.11754 -2.028645 -1.620826 2.318883 2.279235 9.392742 -8.579351 1.385494 22.00698 7.020244 3.023955 -21.34305 8.527036 3.665316 -15.32301 11.0507 90.40837 29.41048 -23.52143 -2.810865e-11 -2.719895e-11 8.942959 -14.67679 11.33856 6.659381 7.089138 -22.98188 -2.961683 -85.93904 23.38028 10.51077 3.097572e-11 -5.772904e-12 -22.79872 6.473135 14.34208 5.314015
